<svg width="48" height="48" viewBox="0 0 48 48" fill="none" xmlns="http://www.w3.org/2000/svg">
<path d="M38 14V8C38 6.89617 37.1038 6 36 6H10C7.79234 6 6 7.79234 6 10C6 12.2077 7.79234 14 10 14H40C41.1038 14 42 14.8962 42 16V24H36C33.7923 24 32 25.7923 32 28C32 30.2077 33.7923 32 36 32H42C43.1038 32 44 31.1038 44 30V26C44 24.8962 43.1038 24 42 24" stroke="#0D5C56" stroke-width="3" stroke-linecap="round" stroke-linejoin="round"/>
<path d="M6 10V38C6 40.2077 7.79234 42 10 42H40C41.1038 42 42 41.1038 42 40V32" stroke="#0D5C56" stroke-width="3" stroke-linecap="round" stroke-linejoin="round"/>
</svg>
